<svg width="27" height="20" fill="none" xmlns="http://www.w3.org/2000/svg"><mask id="a" style="mask-type:alpha" maskUnits="userSpaceOnUse" x="0" y="0" width="27" height="20"><path d="M25 8.8 1 2v17l24-1.9429V8.8Z" stroke="#fff" stroke-linejoin="round"/><path d="m5 1 .0887-.2866A.3.3 0 0 0 4.947.7047L5 1Zm21 6.5h.3a.3.3 0 0 0-.2113-.2866L26 7.5Zm0 8.5v.3a.3.3 0 0 0 .3-.3H26ZM.9469 1.4247a.3.3 0 1 0 .1063.5906l-.1063-.5905Zm3.9644-.1381 21 6.5.1774-.5732-21-6.5-.1774.5732ZM25.7 7.5V16h.6V7.5h-.6Zm.3 8.2h-1.5v.6H26v-.6ZM4.9469.7047l-4 .72.1063.5906 4-.72-.1063-.5906Z" fill="#fff"/></mask><g mask="url(#a)"><path fill="url(#b)" d="M-4-1h38v24H-4z"/></g><defs><radialGradient id="b" cx="0" cy="0" r="1" gradientUnits="userSpaceOnUse" gradientTransform="matrix(31.50003 18.00003 -28.50002 49.875 -3 .5)"><stop stop-color="#FFF2FE"/><stop offset="1" stop-color="#989898"/></radialGradient></defs></svg>