<svg width="32" height="32" fill="none" xmlns="http://www.w3.org/2000/svg"><g clip-path="url(#a)"><path d="M-.0814 10.7248a1 1 0 0 1 1.352-.4102l1.7635.9405a9.9579 9.9579 0 0 1 2.7153-5.0092c1.424-1.424 3.1735-2.3306 5.0091-2.7152l-.9419-1.7621a1 1 0 1 1 1.7636-.9433l1.3322 2.4918a9.97 9.97 0 0 1 6.9791 2.9288l.7071-.707a1.0002 1.0002 0 0 0 0-1.4143l-.7071-.707a1.0002 1.0002 0 0 1 .7071-1.7072 1 1 0 0 1 .7071.293l.7071.707a3 3 0 0 1 0 4.2426l-.7071.7072 1.4142 1.4142 2.1213-2.1214a1.0002 1.0002 0 0 1 1.7072.7072.9999.9999 0 0 1-.2929.707l-2.1214 2.1214 1.4143 1.4142.7071-.7071a3 3 0 0 1 4.2426 0l.7071.7071a1.0001 1.0001 0 0 1-1.4142 1.4142l-.7071-.7071a1.0001 1.0001 0 0 0-1.4142 0l-.7071.7071a10.0003 10.0003 0 0 1 0 14.1421 10 10 0 0 1-14.1422 0l-.7071.7072a1 1 0 0 0 0 1.4142l.7071.7071a.9997.9997 0 0 1 0 1.4142 1.0001 1.0001 0 0 1-1.4142 0l-.7071-.7071a3 3 0 0 1 0-4.2427l.7071-.7071-1.4142-1.4142-2.1213 2.1213a.9997.9997 0 0 1-1.4142 0 .9998.9998 0 0 1 0-1.4142l2.1213-2.1213-1.4142-1.4142-.7071.7071a3 3 0 0 1-4.2427 0l-.707-.7071a1 1 0 1 1 1.4141-1.4142l.7071.7071a1.0001 1.0001 0 0 0 1.4143 0l.707-.7071c-1.929-1.929-2.9047-4.452-2.9288-6.9792L.3287 12.0767a.9998.9998 0 0 1-.4101-1.3519Zm8.6592 9.6633 5.6568 5.6568a7.9998 7.9998 0 0 0 10.5642.6647L13.5275 15.4383l-4.9497 4.9498Zm6.364-6.364L26.213 25.2954a8.0004 8.0004 0 0 0-.6646-10.5642l-5.6569-5.6568-4.9497 4.9497Zm3.5355-6.364a7.9784 7.9784 0 0 0-6.1038-2.3306 7.9659 7.9659 0 0 0-5.21 2.3307 7.966 7.966 0 0 0-2.332 5.2113 7.9777 7.9777 0 0 0 2.332 6.1024L18.4774 7.6602Z" fill="#000"/></g><defs><clipPath id="a"><path fill="#fff" d="M0 0h32v32H0z"/></clipPath></defs></svg>