<svg transform="scale(-1 1)" transform-origin="center" viewBox="0 0 128 128" width="32" height="32" fill="currentcolor"><path d="M106.9893 41.9164c-2.4458-2.028-4.6879-.712-6.1614.4555-7.6236 6.0377-14.0459 10.769-20.9298 15.9803-7.576 5.7354-15.4101 11.6664-23.8195 18.3933-6.3939 5.1146-7.8801 12.1272-4.0787 19.24 1.0626 2.3214 3.5564 4.3796 6.8445 5.6482a14.1974 14.1974 0 0 0 5.132 1.0006c4.5652 0 8.7756-2.4557 12.0024-7.1411 6.46-9.381 11.9193-17.6315 17.699-26.3667 4.5108-6.817 8.4793-13.2085 13.6394-20.8063 1.6433-2.4195 1.5177-4.8732-.328-6.4038ZM64.0024 38.076a49.1323 49.1323 0 0 1 18.5574 5.4495c.8494.4467 1.6888.923 2.5038 1.4237.8297-.653 1.6594-1.3108 2.4841-1.9637q5.037-3.9914 10.079-7.9729a62.6196 62.6196 0 0 0-9.1118-4.6982c-.6088-.2553-1.2225-.5057-1.841-.7413A63.0142 63.0142 0 0 0 1.0203 88.343H6.666a56.291 56.291 0 0 1 5.9894-21.2624 54.6615 54.6615 0 0 1 13.3043-16.7802A52.8275 52.8275 0 0 1 44.09 40.2607a51.036 51.036 0 0 1 19.9123-2.1846Zm62.9773 50.267q0-.6112-.0147-1.2224a4.4687 4.4687 0 0 0 .0098-.5155c-.0982-2.4449-.2504-4.9044-.5891-7.3297a62.0805 62.0805 0 0 0-11.6352-28.4694l-4.5952 6.77q-3.0781 4.5363-6.1956 9.1314a44.6276 44.6276 0 0 1 1.6005 4.4283 44.163 44.163 0 0 1 1.6446 17.2073Z"/></svg>